# xmcd
# 
# Track frame offsets:
#     150
#     13927
#     31038
#     43435
#     69371
#     98814
#     119904
#     137263
#     158800
#     175971
#     202732
#     217481
#     239468
# 
# Disc length: 3571
# 
# Revision: 12
# Processed by: cddbd v1.5.2PL0 Copyright (c) Steve Scherf et al.
# Submitted via: fre:ac v1.0.31
# 
DISCID=bc0df10d
DTITLE=RADWIMPS - アルトコロニー定理
DYEAR=0
DGENRE=J-Rock
TTITLE0=タユタ
TTITLE1=おしゃかさま
TTITLE2=バグパイプ
TTITLE3=謎謎
TTITLE4=七ノ歌
TTITLE5=One man live
TTITLE6=ソクラティックラブ
TTITLE7=メルヘンとグレーテル
TTITLE8=雨音子
TTITLE9=オーダーメード
TTITLE10=魔法鏡
TTITLE11=叫べ
TTITLE12=37458
EXTD=
EXTT0=
EXTT1=
EXTT2=
EXTT3=
EXTT4=
EXTT5=
EXTT6=
EXTT7=
EXTT8=
EXTT9=
EXTT10=
EXTT11=
EXTT12=
PLAYORDER=
